<svg width="46" height="46" viewBox="0 0 46 46" fill="none" xmlns="http://www.w3.org/2000/svg">
    <path d="M28.1812 39.9858L28.2022 40.0005C30.0124 41.1531 32.1616 41.6536 34.2948 41.4193C36.428 41.185 38.4174 40.23 39.9343 38.712L41.2521 37.3943C41.5441 37.1024 41.7758 36.7559 41.9338 36.3745C42.0919 35.9931 42.1732 35.5843 42.1732 35.1714C42.1732 34.7586 42.0919 34.3498 41.9338 33.9684C41.7758 33.587 41.5441 33.2405 41.2521 32.9486L35.694 27.3947C35.4022 27.1027 35.0556 26.871 34.6742 26.713C34.2928 26.5549 33.884 26.4736 33.4712 26.4736C33.0583 26.4736 32.6495 26.5549 32.2681 26.713C31.8867 26.871 31.5402 27.1027 31.2483 27.3947C30.659 27.9838 29.8599 28.3148 29.0266 28.3148C28.1933 28.3148 27.3941 27.9838 26.8048 27.3947L17.9177 18.5055C17.3286 17.9162 16.9976 17.117 16.9976 16.2837C16.9976 15.4505 17.3286 14.6513 17.9177 14.062C18.2097 13.7701 18.4414 13.4236 18.5994 13.0422C18.7575 12.6608 18.8389 12.252 18.8389 11.8392C18.8389 11.4263 18.7575 11.0175 18.5994 10.6361C18.4414 10.2547 18.2097 9.90817 17.9177 9.61633L12.3617 4.06243C11.7724 3.47329 10.9732 3.14233 10.1399 3.14233C9.30665 3.14233 8.50747 3.47329 7.91816 4.06243L6.59829 5.3802C5.08064 6.89737 4.126 8.88691 3.89211 11.0201C3.65823 13.1532 4.15909 15.3024 5.31195 17.1123L5.32452 17.1333C11.413 26.1414 19.172 33.8989 28.1812 39.9858V39.9858Z"
          stroke="#0E0F11" stroke-width="1.5" stroke-linecap="round" stroke-linejoin="round"/>
</svg>
