<svg width="46" height="46" viewBox="0 0 46 46" fill="none" xmlns="http://www.w3.org/2000/svg">
    <path d="M38.7782 20.5992C38.7782 32.9706 26.1071 40.5922 23.4739 42.0439C23.328 42.1244 23.1641 42.1666 22.9975 42.1666C22.8309 42.1666 22.667 42.1244 22.5212 42.0439C19.8859 40.5922 7.21875 32.9706 7.21875 20.5992C7.21875 10.7369 13.1362 3.83325 22.9985 3.83325C32.8608 3.83325 38.7782 10.7369 38.7782 20.5992Z"
          stroke="#0E0F11" stroke-width="1.5" stroke-linecap="round" stroke-linejoin="round"/>
    <path d="M15.1094 19.613C15.1094 21.7055 15.9406 23.7124 17.4203 25.192C18.8999 26.6716 20.9067 27.5029 22.9992 27.5029C25.0918 27.5029 27.0986 26.6716 28.5782 25.192C30.0579 23.7124 30.8891 21.7055 30.8891 19.613C30.8891 17.5205 30.0579 15.5137 28.5782 14.034C27.0986 12.5544 25.0918 11.7231 22.9992 11.7231C20.9067 11.7231 18.8999 12.5544 17.4203 14.034C15.9406 15.5137 15.1094 17.5205 15.1094 19.613V19.613Z"
          stroke="#0E0F11" stroke-width="1.5" stroke-linecap="round" stroke-linejoin="round"/>
</svg>
