<svg width="46" height="46" viewBox="0 0 46 46" fill="none" xmlns="http://www.w3.org/2000/svg">
    <path d="M42.1693 13.6841V32.8507C42.1693 34.1216 41.6644 35.3404 40.7658 36.239C39.8672 37.1376 38.6484 37.6424 37.3776 37.6424H8.6276C7.35678 37.6424 6.138 37.1376 5.23938 36.239C4.34077 35.3404 3.83594 34.1216 3.83594 32.8507V13.6841"
          stroke="#0E0F11" stroke-width="1.5" stroke-linecap="round" stroke-linejoin="round"/>
    <path d="M42.1693 13.684C42.1693 12.4132 41.6644 11.1944 40.7658 10.2958C39.8672 9.39717 38.6484 8.89233 37.3776 8.89233H8.6276C7.35678 8.89233 6.138 9.39717 5.23938 10.2958C4.34077 11.1944 3.83594 12.4132 3.83594 13.684L20.463 24.0659C21.2246 24.5419 22.1045 24.7943 23.0026 24.7943C23.9007 24.7943 24.7806 24.5419 25.5422 24.0659L42.1693 13.684Z"
          stroke="#0E0F11" stroke-width="1.5" stroke-linecap="round" stroke-linejoin="round"/>
</svg>
