<svg xmlns="http://www.w3.org/2000/svg" width="46" height="46" viewBox="0 0 46 46" fill="none">
    <path d="M29.5929 12.181V9.47625C29.5929 7.98322 28.3811 6.77148 26.8881 6.77148H18.7738C17.2808 6.77148 16.069 7.98322 16.069 9.47625V12.181M5.25 25.7048H40.75M37.7071 39.2286H7.95476C6.46173 39.2286 5.25 38.0169 5.25 36.5239V14.8858C5.25 13.3927 6.46173 12.181 7.95476 12.181H37.7071C39.2002 12.181 40.4119 13.3927 40.4119 14.8858V36.5239C40.4119 38.0169 39.2002 39.2286 37.7071 39.2286Z"
          stroke="#0E0F11" stroke-width="1.5"/>
    <path d="M13.3672 23H16.0719V25.7048H13.3672V23ZM29.5958 23H32.3005V25.7048H29.5958V23Z" stroke="#0E0F11"
          stroke-width="1.5"/>
    <script xmlns=""/>
</svg>